<svg width="35" height="35" viewBox="0 0 35 35" fill="none" xmlns="http://www.w3.org/2000/svg">
<g clip-path="url(#clip0_102_1173)">
<path d="M20.9568 3.9672L17.8931 7.03093L28.3098 17.4476L31.3735 14.3839L20.9568 3.9672Z" fill="#F0F0F0"/>
<path d="M17.003 15.9588C17.7209 15.9588 18.3028 15.3768 18.3028 14.659C18.3028 13.9411 17.7209 13.3591 17.003 13.3591C16.2851 13.3591 15.7031 13.9411 15.7031 14.659C15.7031 15.3768 16.2851 15.9588 17.003 15.9588Z" fill="#F0F0F0"/>
<path d="M6.24901 23.5759C4.72819 25.0967 4.72819 27.5664 6.24901 29.0915C7.76983 30.6124 10.2395 30.6124 11.7647 29.0915L23.407 17.4449L12.9909 16.834L6.24901 23.5759ZM7.84349 27.9044C7.08091 27.1418 7.08091 25.9069 7.84349 25.1487C8.60606 24.3861 9.84092 24.3861 10.5992 25.1487C11.3617 25.9113 11.3617 27.1461 10.5992 27.9044C9.84092 28.6669 8.60606 28.6669 7.84349 27.9044ZM17.4667 19.815C17.9736 20.3219 17.9736 21.1452 17.4667 21.6521C16.9597 22.159 16.1365 22.159 15.6296 21.6521C15.1226 21.1452 15.1226 20.3219 15.6296 19.815C16.1365 19.3037 16.9597 19.3037 17.4667 19.815ZM12.5793 21.2232C13.1729 21.8168 13.1729 22.7743 12.5793 23.3679C11.9857 23.9615 11.0281 23.9615 10.4345 23.3679C9.84092 22.7743 9.84092 21.8168 10.4345 21.2232C11.0281 20.6339 11.99 20.6339 12.5793 21.2232Z" fill="#F0F0F0"/>
<path d="M23.6369 14.4553C23.7149 14.3773 23.7799 14.2907 23.8405 14.204L21.7478 12.1113C21.6568 12.1676 21.5745 12.2369 21.4965 12.3149C20.9029 12.9085 20.9029 13.8661 21.4965 14.4597C22.0857 15.0489 23.0476 15.0489 23.6369 14.4553Z" fill="#F0F0F0"/>
<path d="M12.38 29.7027C10.5212 31.5615 7.49691 31.5615 5.63813 29.7027C3.77935 27.8439 3.77935 24.8196 5.63813 22.9608L19.1175 9.48144L18.5066 8.87051L5.02287 22.3499C2.8218 24.551 2.8218 28.1169 5.02287 30.3136C7.22394 32.5147 10.7898 32.5147 12.9866 30.3136L26.4703 16.8342L25.8594 16.2233L12.38 29.7027Z" fill="#F0F0F0"/>
</g>
<defs>
<clipPath id="clip0_102_1173">
<rect width="34.6625" height="34.6625" fill="white" transform="translate(-0.00341797 0.330078)"/>
</clipPath>
</defs>
</svg>
