<svg width="23" height="31" viewBox="0 0 23 31" fill="none" xmlns="http://www.w3.org/2000/svg">
<path d="M18.9125 0.665466H3.74766C2.88581 0.665466 2.05926 1.00784 1.44984 1.61726C0.840416 2.22668 0.498047 3.05323 0.498047 3.91508V27.7456C0.498047 28.6074 0.840416 29.434 1.44984 30.0434C2.05926 30.6528 2.88581 30.9952 3.74766 30.9952H18.9125C19.7744 30.9952 20.6009 30.6528 21.2103 30.0434C21.8197 29.434 22.1621 28.6074 22.1621 27.7456V3.91508C22.1621 3.05323 21.8197 2.22668 21.2103 1.61726C20.6009 1.00784 19.7744 0.665466 18.9125 0.665466ZM5.91406 7.16469H6.99727V6.08148C6.99727 5.7942 7.11139 5.51868 7.31453 5.31554C7.51767 5.1124 7.79319 4.99828 8.08047 4.99828C8.36776 4.99828 8.64327 5.1124 8.84641 5.31554C9.04955 5.51868 9.16368 5.7942 9.16368 6.08148V7.16469H10.2469C10.5342 7.16469 10.8097 7.27881 11.0128 7.48195C11.216 7.68509 11.3301 7.96061 11.3301 8.24789C11.3301 8.53518 11.216 8.81069 11.0128 9.01383C10.8097 9.21697 10.5342 9.3311 10.2469 9.3311H9.16368V10.4143C9.16368 10.7016 9.04955 10.9771 8.84641 11.1802C8.64327 11.3834 8.36776 11.4975 8.08047 11.4975C7.79319 11.4975 7.51767 11.3834 7.31453 11.1802C7.11139 10.9771 6.99727 10.7016 6.99727 10.4143V9.3311H5.91406C5.62678 9.3311 5.35126 9.21697 5.14812 9.01383C4.94498 8.81069 4.83086 8.53518 4.83086 8.24789C4.83086 7.96061 4.94498 7.68509 5.14812 7.48195C5.35126 7.27881 5.62678 7.16469 5.91406 7.16469ZM13.4965 25.5792H5.91406C5.62678 25.5792 5.35126 25.465 5.14812 25.2619C4.94498 25.0587 4.83086 24.7832 4.83086 24.4959C4.83086 24.2087 4.94498 23.9331 5.14812 23.73C5.35126 23.5269 5.62678 23.4127 5.91406 23.4127H13.4965C13.7838 23.4127 14.0593 23.5269 14.2624 23.73C14.4656 23.9331 14.5797 24.2087 14.5797 24.4959C14.5797 24.7832 14.4656 25.0587 14.2624 25.2619C14.0593 25.465 13.7838 25.5792 13.4965 25.5792ZM16.7461 21.2463H5.91406C5.62678 21.2463 5.35126 21.1322 5.14812 20.9291C4.94498 20.7259 4.83086 20.4504 4.83086 20.1631C4.83086 19.8758 4.94498 19.6003 5.14812 19.3972C5.35126 19.1941 5.62678 19.0799 5.91406 19.0799H16.7461C17.0334 19.0799 17.3089 19.1941 17.512 19.3972C17.7152 19.6003 17.8293 19.8758 17.8293 20.1631C17.8293 20.4504 17.7152 20.7259 17.512 20.9291C17.3089 21.1322 17.0334 21.2463 16.7461 21.2463ZM16.7461 16.9135H5.91406C5.62678 16.9135 5.35126 16.7994 5.14812 16.5963C4.94498 16.3931 4.83086 16.1176 4.83086 15.8303C4.83086 15.543 4.94498 15.2675 5.14812 15.0644C5.35126 14.8612 5.62678 14.7471 5.91406 14.7471H16.7461C17.0334 14.7471 17.3089 14.8612 17.512 15.0644C17.7152 15.2675 17.8293 15.543 17.8293 15.8303C17.8293 16.1176 17.7152 16.3931 17.512 16.5963C17.3089 16.7994 17.0334 16.9135 16.7461 16.9135Z" fill="#6A3CB9"/>
</svg>
