<svg width="38" height="30" viewBox="0 0 38 30" fill="none" xmlns="http://www.w3.org/2000/svg">
<path d="M2.87423 11.6006L1.43712 13.0377L0 11.6006L1.43712 10.1635L2.87423 11.6006ZM37.4301 27.8622C37.4301 28.4013 37.2159 28.9183 36.8347 29.2995C36.4535 29.6807 35.9365 29.8949 35.3974 29.8949C34.8583 29.8949 34.3412 29.6807 33.96 29.2995C33.5788 28.9183 33.3647 28.4013 33.3647 27.8622H37.4301ZM11.6006 23.2012L1.43712 13.0377L4.31135 10.1635L14.4748 20.327L11.6006 23.2012ZM1.43712 10.1635L11.6006 0L14.4748 2.87423L4.31135 13.0377L1.43712 10.1635ZM2.87423 9.5679H23.2012V13.6333H2.87423V9.5679ZM37.4301 23.7968V27.8622H33.3647V23.7968H37.4301ZM23.2012 9.5679C26.9749 9.5679 30.5941 11.067 33.2625 13.7354C35.931 16.4039 37.4301 20.023 37.4301 23.7968H33.3647C33.3647 21.1013 32.2939 18.5161 30.3879 16.6101C28.4818 14.7041 25.8967 13.6333 23.2012 13.6333V9.5679Z" fill="black"/>
</svg>
