<svg width="214" height="40" viewBox="0 0 214 40" fill="none" xmlns="http://www.w3.org/2000/svg">
<g clip-path="url(#clip0_102_1032)">
<path d="M39.9464 20C39.9464 21.9432 39.1852 23.8068 37.8302 25.1808C36.4753 26.5548 34.6376 27.3267 32.7215 27.3267H20.2242C19.1815 27.3267 18.1621 27.6403 17.295 28.2278C16.428 28.8153 15.7523 29.6503 15.3533 30.6272C14.9542 31.6042 14.8498 32.6792 15.0532 33.7163C15.2566 34.7534 15.7588 35.7061 16.4961 36.4538C17.2335 37.2016 18.1729 37.7108 19.1956 37.9171C20.2184 38.1234 21.2784 38.0175 22.2418 37.6128C23.2052 37.2082 24.0286 36.5229 24.6079 35.6436C25.1873 34.7644 25.4964 33.7307 25.4964 32.6733V29.3069C25.4964 29.0443 25.5994 28.7925 25.7824 28.6068C25.9655 28.4211 26.2138 28.3168 26.4728 28.3168C26.7317 28.3168 26.9801 28.4211 27.1631 28.6068C27.3463 28.7925 27.4491 29.0443 27.4491 29.3069V32.6733C27.4491 34.1224 27.0254 35.5389 26.2316 36.7438C25.4376 37.9487 24.3092 38.8877 22.989 39.4423C21.6688 39.9968 20.2162 40.1419 18.8146 39.8592C17.4132 39.5765 16.1258 38.8787 15.1153 37.854C14.105 36.8294 13.4169 35.5239 13.138 34.1026C12.8592 32.6814 13.0023 31.2082 13.5492 29.8694C14.096 28.5307 15.022 27.3864 16.2102 26.5813C17.3984 25.7762 18.7952 25.3465 20.2242 25.3465H32.7215C34.1198 25.3465 35.4608 24.7832 36.4495 23.7806C37.4382 22.7779 37.9937 21.418 37.9937 20C37.9937 18.582 37.4382 17.2221 36.4495 16.2194C35.4608 15.2168 34.1198 14.6535 32.7215 14.6535H29.4018C29.1429 14.6535 28.8946 14.5492 28.7114 14.3635C28.5283 14.1778 28.4255 13.926 28.4255 13.6634C28.4255 13.4008 28.5283 13.1489 28.7114 12.9633C28.8946 12.7776 29.1429 12.6733 29.4018 12.6733H32.7215C34.6376 12.6733 36.4753 13.4452 37.8302 14.8192C39.1852 16.1932 39.9464 18.0568 39.9464 20ZM14.9519 16.6337C14.9519 16.3711 14.8491 16.1192 14.666 15.9336C14.4828 15.7479 14.2345 15.6436 13.9756 15.6436C13.7166 15.6436 13.4682 15.7479 13.2852 15.9336C13.1021 16.1192 12.9992 16.3711 12.9992 16.6337V20C12.9992 21.0574 12.69 22.0911 12.1107 22.9704C11.5313 23.8496 10.7079 24.5349 9.74455 24.9396C8.78117 25.3442 7.72108 25.4501 6.69836 25.2438C5.67563 25.0375 4.73621 24.5283 3.99886 23.7806C3.26153 23.0328 2.75939 22.0802 2.55595 21.0431C2.35253 20.0059 2.45694 18.9309 2.85598 17.954C3.25503 16.977 3.93079 16.142 4.79781 15.5545C5.66483 14.967 6.68417 14.6535 7.72693 14.6535H23.5437C23.8011 14.6484 24.0465 14.5425 24.2286 14.3579C24.4106 14.1733 24.5151 13.9244 24.5201 13.6634C24.5201 13.4008 24.4172 13.1489 24.2341 12.9633C24.0511 12.7776 23.8027 12.6733 23.5437 12.6733H7.72693C6.29797 12.6733 4.90109 13.103 3.71295 13.908C2.52481 14.7131 1.59877 15.8574 1.05193 17.1962C0.505084 18.535 0.362005 20.0081 0.640782 21.4294C0.919559 22.8506 1.60767 24.1561 2.6181 25.1808C3.62854 26.2054 4.9159 26.9032 6.31741 27.186C7.71892 27.4687 9.17162 27.3236 10.4919 26.769C11.812 26.2145 12.9404 25.2754 13.7343 24.0705C14.5282 22.8656 14.9519 21.4491 14.9519 20V16.6337ZM13.9756 11.6832C14.233 11.6781 14.4784 11.5722 14.6604 11.3876C14.8425 11.203 14.9469 10.9541 14.9519 10.6931V7.32673C14.9519 5.90874 15.5074 4.54883 16.4961 3.54616C17.4849 2.54349 18.8259 1.9802 20.2242 1.9802C21.6225 1.9802 22.9635 2.54349 23.9523 3.54616C24.9409 4.54883 25.4964 5.90874 25.4964 7.32673V23.3663C25.4964 23.6289 25.5994 23.8808 25.7824 24.0664C25.9655 24.2521 26.2138 24.3564 26.4728 24.3564C26.7301 24.3514 26.9756 24.2454 27.1576 24.0608C27.3397 23.8762 27.4442 23.6273 27.4491 23.3663V7.32673C27.4491 6.36457 27.2622 5.41183 26.8992 4.52291C26.5361 3.63399 26.0039 2.8263 25.333 2.14595C24.6621 1.4656 23.8656 0.925916 22.989 0.557713C22.1125 0.18951 21.173 0 20.2242 0C19.2753 0 18.3359 0.18951 17.4593 0.557713C16.5828 0.925916 15.7863 1.4656 15.1153 2.14595C14.4445 2.8263 13.9123 3.63399 13.5492 4.52291C13.1861 5.41183 12.9992 6.36457 12.9992 7.32673V10.6931C12.9992 10.9557 13.1021 11.2075 13.2852 11.3932C13.4682 11.5789 13.7166 11.6832 13.9756 11.6832Z" fill="url(#paint0_linear_102_1032)"/>
<path d="M41.878 31V7.801H46.366V31H41.878ZM56.431 31V7.801H60.919V31H56.431ZM44.716 21.001V17.041H57.685V21.001H44.716ZM72.8222 31.33C71.1502 31.33 69.6652 30.978 68.3672 30.274C67.0692 29.548 66.0352 28.558 65.2652 27.304C64.5172 26.05 64.1432 24.62 64.1432 23.014C64.1432 21.43 64.5062 20.022 65.2322 18.79C65.9802 17.536 66.9922 16.546 68.2682 15.82C69.5442 15.072 70.9632 14.698 72.5252 14.698C74.0652 14.698 75.4182 15.05 76.5842 15.754C77.7722 16.436 78.6962 17.382 79.3562 18.592C80.0382 19.78 80.3792 21.133 80.3792 22.651C80.3792 22.937 80.3572 23.234 80.3132 23.542C80.2912 23.828 80.2362 24.158 80.1482 24.532L66.7502 24.565V21.331L78.1352 21.298L76.3862 22.651C76.3422 21.705 76.1662 20.913 75.8582 20.275C75.5722 19.637 75.1432 19.153 74.5712 18.823C74.0212 18.471 73.3392 18.295 72.5252 18.295C71.6672 18.295 70.9192 18.493 70.2812 18.889C69.6432 19.263 69.1482 19.802 68.7962 20.506C68.4662 21.188 68.3012 22.002 68.3012 22.948C68.3012 23.916 68.4772 24.763 68.8292 25.489C69.2032 26.193 69.7312 26.743 70.4132 27.139C71.0952 27.513 71.8872 27.7 72.7892 27.7C73.6032 27.7 74.3402 27.568 75.0002 27.304C75.6602 27.018 76.2322 26.6 76.7162 26.05L79.2572 28.591C78.4872 29.493 77.5412 30.175 76.4192 30.637C75.3192 31.099 74.1202 31.33 72.8222 31.33ZM89.7187 31.33C88.2667 31.33 86.9577 30.967 85.7917 30.241C84.6257 29.515 83.7127 28.525 83.0527 27.271C82.3927 26.017 82.0627 24.609 82.0627 23.047C82.0627 21.463 82.3927 20.044 83.0527 18.79C83.7127 17.536 84.6257 16.546 85.7917 15.82C86.9577 15.094 88.2667 14.731 89.7187 14.731C90.8627 14.731 91.8857 14.962 92.7877 15.424C93.6897 15.886 94.4047 16.535 94.9327 17.371C95.4827 18.185 95.7797 19.109 95.8237 20.143V25.885C95.7797 26.941 95.4827 27.876 94.9327 28.69C94.4047 29.504 93.6897 30.153 92.7877 30.637C91.8857 31.099 90.8627 31.33 89.7187 31.33ZM90.5107 27.337C91.7207 27.337 92.6997 26.941 93.4477 26.149C94.1957 25.335 94.5697 24.29 94.5697 23.014C94.5697 22.178 94.3937 21.441 94.0417 20.803C93.7117 20.143 93.2387 19.637 92.6227 19.285C92.0287 18.911 91.3247 18.724 90.5107 18.724C89.7187 18.724 89.0147 18.911 88.3987 19.285C87.8047 19.637 87.3317 20.143 86.9797 20.803C86.6497 21.441 86.4847 22.178 86.4847 23.014C86.4847 23.872 86.6497 24.631 86.9797 25.291C87.3317 25.929 87.8047 26.435 88.3987 26.809C89.0147 27.161 89.7187 27.337 90.5107 27.337ZM94.3387 31V26.71L95.0317 22.816L94.3387 18.988V15.061H98.6287V31H94.3387ZM102.453 31V7.141H106.776V31H102.453ZM112.949 31V8.428H117.272V31H112.949ZM109.22 18.856V15.061H121.001V18.856H109.22ZM134.158 31V21.859C134.158 20.913 133.861 20.143 133.267 19.549C132.673 18.955 131.903 18.658 130.957 18.658C130.341 18.658 129.791 18.79 129.307 19.054C128.823 19.318 128.438 19.692 128.152 20.176C127.888 20.66 127.756 21.221 127.756 21.859L126.073 21.001C126.073 19.747 126.337 18.658 126.865 17.734C127.393 16.788 128.119 16.051 129.043 15.523C129.989 14.995 131.067 14.731 132.277 14.731C133.487 14.731 134.554 14.995 135.478 15.523C136.424 16.051 137.161 16.777 137.689 17.701C138.217 18.625 138.481 19.692 138.481 20.902V31H134.158ZM123.433 31V7.141H127.756V31H123.433ZM152.688 31V21.859C152.688 20.913 152.391 20.143 151.797 19.549C151.203 18.955 150.433 18.658 149.487 18.658C148.871 18.658 148.321 18.79 147.837 19.054C147.353 19.318 146.968 19.692 146.682 20.176C146.418 20.66 146.286 21.221 146.286 21.859L144.603 21.001C144.603 19.747 144.867 18.658 145.395 17.734C145.945 16.788 146.693 16.051 147.639 15.523C148.607 14.995 149.696 14.731 150.906 14.731C152.072 14.731 153.117 15.028 154.041 15.622C154.965 16.194 155.691 16.953 156.219 17.899C156.747 18.823 157.011 19.824 157.011 20.902V31H152.688ZM141.963 31V15.061H146.286V31H141.963ZM167.984 31.33C166.378 31.33 164.926 30.967 163.628 30.241C162.352 29.493 161.329 28.492 160.559 27.238C159.811 25.962 159.437 24.543 159.437 22.981C159.437 21.419 159.811 20.022 160.559 18.79C161.307 17.536 162.33 16.546 163.628 15.82C164.926 15.072 166.367 14.698 167.951 14.698C169.579 14.698 171.031 15.072 172.307 15.82C173.605 16.546 174.628 17.536 175.376 18.79C176.124 20.022 176.498 21.419 176.498 22.981C176.498 24.543 176.124 25.962 175.376 27.238C174.628 28.492 173.605 29.493 172.307 30.241C171.031 30.967 169.59 31.33 167.984 31.33ZM167.951 27.304C168.765 27.304 169.48 27.128 170.096 26.776C170.734 26.402 171.218 25.896 171.548 25.258C171.9 24.598 172.076 23.85 172.076 23.014C172.076 22.178 171.9 21.441 171.548 20.803C171.196 20.165 170.712 19.67 170.096 19.318C169.48 18.944 168.765 18.757 167.951 18.757C167.159 18.757 166.455 18.944 165.839 19.318C165.223 19.67 164.739 20.165 164.387 20.803C164.035 21.441 163.859 22.178 163.859 23.014C163.859 23.85 164.035 24.598 164.387 25.258C164.739 25.896 165.223 26.402 165.839 26.776C166.455 27.128 167.159 27.304 167.951 27.304ZM186.013 31.33C184.539 31.33 183.219 30.967 182.053 30.241C180.887 29.515 179.963 28.525 179.281 27.271C178.621 26.017 178.291 24.609 178.291 23.047C178.291 21.463 178.621 20.044 179.281 18.79C179.963 17.536 180.876 16.546 182.02 15.82C183.186 15.094 184.517 14.731 186.013 14.731C187.157 14.731 188.18 14.962 189.082 15.424C190.006 15.886 190.743 16.535 191.293 17.371C191.865 18.185 192.173 19.109 192.217 20.143V25.819C192.173 26.853 191.876 27.788 191.326 28.624C190.776 29.46 190.039 30.12 189.115 30.604C188.191 31.088 187.157 31.33 186.013 31.33ZM186.739 27.337C187.553 27.337 188.257 27.161 188.851 26.809C189.467 26.435 189.94 25.929 190.27 25.291C190.622 24.631 190.798 23.872 190.798 23.014C190.798 22.178 190.622 21.441 190.27 20.803C189.94 20.143 189.467 19.637 188.851 19.285C188.257 18.911 187.564 18.724 186.772 18.724C185.958 18.724 185.243 18.911 184.627 19.285C184.033 19.659 183.56 20.165 183.208 20.803C182.878 21.441 182.713 22.178 182.713 23.014C182.713 23.872 182.878 24.631 183.208 25.291C183.56 25.929 184.044 26.435 184.66 26.809C185.276 27.161 185.969 27.337 186.739 27.337ZM194.857 31H190.567V26.71L191.26 22.816L190.534 18.988V7.141H194.857V31ZM206.305 31.33C204.633 31.33 203.148 30.978 201.85 30.274C200.552 29.548 199.518 28.558 198.748 27.304C198 26.05 197.626 24.62 197.626 23.014C197.626 21.43 197.989 20.022 198.715 18.79C199.463 17.536 200.475 16.546 201.751 15.82C203.027 15.072 204.446 14.698 206.008 14.698C207.548 14.698 208.901 15.05 210.067 15.754C211.255 16.436 212.179 17.382 212.839 18.592C213.521 19.78 213.862 21.133 213.862 22.651C213.862 22.937 213.84 23.234 213.796 23.542C213.774 23.828 213.719 24.158 213.631 24.532L200.233 24.565V21.331L211.618 21.298L209.869 22.651C209.825 21.705 209.649 20.913 209.341 20.275C209.055 19.637 208.626 19.153 208.054 18.823C207.504 18.471 206.822 18.295 206.008 18.295C205.15 18.295 204.402 18.493 203.764 18.889C203.126 19.263 202.631 19.802 202.279 20.506C201.949 21.188 201.784 22.002 201.784 22.948C201.784 23.916 201.96 24.763 202.312 25.489C202.686 26.193 203.214 26.743 203.896 27.139C204.578 27.513 205.37 27.7 206.272 27.7C207.086 27.7 207.823 27.568 208.483 27.304C209.143 27.018 209.715 26.6 210.199 26.05L212.74 28.591C211.97 29.493 211.024 30.175 209.902 30.637C208.802 31.099 207.603 31.33 206.305 31.33Z" fill="#252B61"/>
</g>
<defs>
<linearGradient id="paint0_linear_102_1032" x1="107.002" y1="-15" x2="87.8186" y2="49.4941" gradientUnits="userSpaceOnUse">
<stop stop-color="#A468A4"/>
<stop offset="1" stop-color="#594D99"/>
</linearGradient>
<clipPath id="clip0_102_1032">
<rect width="213" height="40" fill="white" transform="translate(0.501953)"/>
</clipPath>
</defs>
</svg>
